<svg xmlns="http://www.w3.org/2000/svg" viewBox="0 0 100 80" fill="none">
  <defs>
    <linearGradient id="hypeGrad" x1="15" y1="10" x2="85" y2="70" gradientUnits="userSpaceOnUse">
      <stop offset="0%" stop-color="#4EEDC7" />
      <stop offset="45%" stop-color="#24E4B8" />
      <stop offset="100%" stop-color="#05B390" />
    </linearGradient>
    <filter id="hypeShadow" x="0" y="0" width="100" height="85" filterUnits="userSpaceOnUse" color-interpolation-filters="sRGB">
      <feDropShadow dx="0" dy="2" stdDeviation="2" flood-color="#05B390" flood-opacity="0.3" />
    </filter>
  </defs>
  <path
    d="M 32,20
       C 20,20 12,28 12,40
       C 12,52 20,60 32,60
       C 39,60 44,55 48,49
       C 52,43 56,43 60,49
       C 65,58 72,66 82,66
       C 92,66 98,56 98,44
       C 98,30 89,18 78,18
       C 68,18 61,24 57,32
       C 54,37 49,37 46,31
       C 42,24 37,20 32,20 Z"
    fill="url(#hypeGrad)"
    filter="url(#hypeShadow)"
  />
  <path
    d="M 32,24
       C 24,24 17,29 17,40
       C 17,43 19,42 22,39
       C 27,33 34,26 44,28
       C 40,25 36,24 32,24 Z"
    fill="#FFFFFF"
    opacity="0.35"
  />
</svg>
